<?xml version="1.0" encoding="utf-8"?>
<!-- Generator: Adobe Illustrator 16.0.0, SVG Export Plug-In . SVG Version: 6.00 Build 0)  -->
<!DOCTYPE svg PUBLIC "-//W3C//DTD SVG 1.1//EN" "http://www.w3.org/Graphics/SVG/1.1/DTD/svg11.dtd">
<svg version="1.1" id="Layer_1" xmlns="http://www.w3.org/2000/svg" xmlns:xlink="http://www.w3.org/1999/xlink" x="0px" y="0px"
	 width="193px" height="196px" viewBox="77.5 -63.5 193 196" enable-background="new 77.5 -63.5 193 196" xml:space="preserve">
<path fill-rule="evenodd" clip-rule="evenodd" fill="#ED6D5B" d="M175-53.443c-48.018,0-86.943,38.925-86.943,86.943
	s38.925,86.943,86.943,86.943c48.017,0,86.943-38.926,86.943-86.943S223.017-53.443,175-53.443z M209.211,78.253
	c-2.926,2.803-6.302,2.548-10.212-0.904c-10.087-8.896-20.002-17.991-30.271-26.671c-4.197-3.546-5.552-7.701-5.287-12.832
	c0.421-8.144,0.783-16.291,1.169-24.437c-0.013,0-0.025,0-0.038-0.001c0.509-9.142,1.038-18.282,1.518-27.425
	c0.195-3.692,1.459-6.488,5.625-6.739c3.587-0.216,5.699,2.155,5.938,6.819c0.772,15.144,1.367,30.299,2.259,45.437
	c0.123,2.065,1.102,4.431,2.441,6.017c8.592,10.158,17.398,20.135,26.129,30.176C212.026,71.769,212.263,75.329,209.211,78.253z"/>
</svg>
