<?xml version="1.0" encoding="utf-8"?>
<!-- Generator: Adobe Illustrator 16.0.0, SVG Export Plug-In . SVG Version: 6.00 Build 0)  -->
<!DOCTYPE svg PUBLIC "-//W3C//DTD SVG 1.1//EN" "http://www.w3.org/Graphics/SVG/1.1/DTD/svg11.dtd">
<svg version="1.1" id="Layer_1" xmlns="http://www.w3.org/2000/svg" xmlns:xlink="http://www.w3.org/1999/xlink" x="0px" y="0px"
	 width="186.957px" height="188.044px" viewBox="0 0 186.957 188.044" enable-background="new 0 0 186.957 188.044"
	 xml:space="preserve">
<circle fill="#BCBCBC" cx="94.317" cy="93.879" r="90.396"/>
<path fill="#EF4227" d="M94.316,180.274c-47.639,0-86.396-38.757-86.396-86.396S46.678,7.483,94.316,7.483
	c47.639,0,86.396,38.757,86.396,86.396S141.956,180.274,94.316,180.274z"/>
<g>
	<g>
		<path fill="#FFFFFF" stroke="#FFFFFF" stroke-miterlimit="10" d="M55.952,48.389c-0.435-2.994-1.228-4.938-2.379-5.833
			c-1.177-0.946-2.623-1.42-4.337-1.42h-0.998v23.718h4.03v0.959H39.334v-0.959h4.03V41.135h-1.075c-1.714,0-3.16,0.461-4.337,1.382
			c-1.151,0.947-1.945,2.904-2.379,5.872h-1.228l0.422-8.213h21.991l0.422,8.213H55.952z"/>
		<path fill="#FFFFFF" stroke="#FFFFFF" stroke-miterlimit="10" d="M71.82,65.813v-0.782h3.096v-9.569h-8.412v9.569H69.6v0.782
			H59.437v-0.782h3.096V45.705h-3.096v-0.782H69.6v0.782h-3.096v9.006h8.412v-9.006H71.82v-0.782h10.163v0.782h-3.096v19.326h3.096
			v0.782H71.82z"/>
		<path fill="#FFFFFF" stroke="#FFFFFF" stroke-miterlimit="10" d="M101.748,65.813H83.985v-0.782h3.096V45.705h-3.096v-0.782h17.23
			l0.219,5.629h-0.875c-0.459-2.001-1.126-3.304-2.002-3.909c-0.875-0.625-2.178-0.938-3.908-0.938h-3.596v8.975h0.844
			c1.584,0,2.626-0.375,3.127-1.125c0.521-0.771,0.781-1.668,0.781-2.689h0.876v8.725h-0.876c0-1.104-0.25-2.064-0.75-2.877
			c-0.521-0.833-1.574-1.251-3.158-1.251h-0.844v9.569h4.19c2.021,0,3.43-0.49,4.222-1.47s1.345-2.471,1.657-4.472h0.907
			L101.748,65.813z"/>
	</g>
	<g>
		<path fill="#FFFFFF" stroke="#FFFFFF" stroke-linecap="round" stroke-linejoin="round" stroke-miterlimit="10" d="M74.239,106.515
			v-1.178h4.664V76.554l-9.61,29.96h-1.602l-9.516-29.96v28.783h4.664v1.178H52.052v-1.178h4.664V76.225h-4.664v-1.178h12.154
			l6.595,21.575l6.831-21.575H89.55v1.178h-4.664v29.112h4.664v1.178H74.239z"/>
		<path fill="#FFFFFF" stroke="#FFFFFF" stroke-linecap="round" stroke-linejoin="round" stroke-miterlimit="10" d="
			M103.802,106.515v-0.959h3.953l-2.265-6.794h-8.329l-2.38,6.794h3.915v0.959H90.56v-0.959h3.071l9.174-25.257h1.344l8.751,25.257
			h3.032v0.959H103.802z M101.46,87.093l-3.876,10.709h7.446L101.46,87.093z"/>
		<path fill="#FFFFFF" stroke="#FFFFFF" stroke-linecap="round" stroke-linejoin="round" stroke-miterlimit="10" d="M139.192,81.834
			v25.181h-1.151l-16.274-24.451v22.992h3.761v0.959h-8.751v-0.959h3.762V81.834h-3.762v-0.959h9.826l11.362,16.774V81.834h-3.686
			v-0.959h8.714v0.959H139.192z"/>
	</g>
	<g>
		<path fill="#FFFFFF" stroke="#FFFFFF" stroke-miterlimit="10" d="M88.931,146.956L87,144.742c-1.13,0.911-2.355,1.571-3.674,1.979
			c-1.414,0.439-2.858,0.66-4.334,0.66c-3.863,0-7.255-1.633-10.175-4.899c-2.953-3.234-4.428-7.035-4.428-11.4
			c0-4.522,1.46-8.416,4.381-11.683c2.983-3.267,6.532-4.899,10.646-4.899c1.57,0,2.952,0.235,4.146,0.707
			c1.256,0.502,2.277,1.083,3.062,1.742l1.837-1.979h1.083v9.092h-1.366c-0.66-3.297-1.854-5.512-3.58-6.642
			c-1.728-1.161-3.518-1.743-5.371-1.743c-2.701,0-4.68,0.941-5.936,2.826c-1.319,1.947-1.979,4.664-1.979,8.15v8.573
			c0,3.58,0.675,6.297,2.026,8.149c1.35,1.885,3.407,2.827,6.171,2.827c1.853,0,3.611-0.612,5.276-1.838
			c1.632-1.225,2.904-3.563,3.815-7.019h1.366v9.609H88.931z"/>
		<path fill="#FFFFFF" stroke="#FFFFFF" stroke-miterlimit="10" d="M106.717,146.674v-0.96h3.953l-2.265-6.793h-8.329l-2.381,6.793
			h3.916v0.96h-8.138v-0.96h3.071l9.174-25.256h1.343l8.752,25.256h3.032v0.96H106.717z M104.375,127.251l-3.877,10.709h7.446
			L104.375,127.251z"/>
		<path fill="#FFFFFF" stroke="#FFFFFF" stroke-miterlimit="10" d="M132.818,121.993l-8.905,25.257h-1.151l-9.136-25.257h-3.186
			v-0.96h12.168v0.96h-3.954l6.525,17.964l6.487-17.964h-3.992v-0.96h8.33v0.96H132.818z"/>
		<path fill="#FFFFFF" stroke="#FFFFFF" stroke-miterlimit="10" d="M158.228,146.674h-21.802v-0.96h3.8v-23.721h-3.8v-0.96h21.149
			l0.269,6.909h-1.074c-0.563-2.457-1.382-4.056-2.457-4.799c-1.074-0.768-2.674-1.15-4.798-1.15h-4.414v11.016h1.036
			c1.944,0,3.225-0.461,3.839-1.382c0.639-0.946,0.959-2.047,0.959-3.301h1.075v10.709h-1.075c0-1.356-0.307-2.533-0.921-3.531
			c-0.64-1.022-1.933-1.535-3.877-1.535h-1.036v11.745h5.144c2.481,0,4.209-0.601,5.182-1.804c0.973-1.202,1.65-3.032,2.034-5.489
			h1.113L158.228,146.674z"/>
	</g>
</g>
</svg>
