<?xml version="1.0" encoding="utf-8"?>
<!-- Generator: Adobe Illustrator 16.0.0, SVG Export Plug-In . SVG Version: 6.00 Build 0)  -->
<!DOCTYPE svg PUBLIC "-//W3C//DTD SVG 1.1//EN" "http://www.w3.org/Graphics/SVG/1.1/DTD/svg11.dtd">
<svg version="1.1" id="Layer_1" xmlns="http://www.w3.org/2000/svg" xmlns:xlink="http://www.w3.org/1999/xlink" x="0px" y="0px"
	 width="352px" height="108px" viewBox="0 0 352 108" enable-background="new 0 0 352 108" xml:space="preserve">
<g>
	<path fill-rule="evenodd" clip-rule="evenodd" fill="#ED6D5B" d="M342.414,55.715c-25.642,20.883-53.928,36.494-86.987,41.557
		c-11.943,1.828-24.302,2.734-36.319,1.896c-16.715-1.162-30.393-9.521-40.906-23.052c-4.015,3.81-7.592,7.704-11.664,10.983
		c-15.988,12.877-34.704,13.817-54.031,11.999c-37.861-3.563-70.222-19.649-99.252-43.384c0-1.463,0-2.926,0-4.389
		c4.979-0.402,9.967-1.245,14.933-1.125c18.768,0.45,37.487,0.7,55.491-5.839c14.372-5.219,26.788-13.502,38.002-23.873
		c18.128-16.767,35.968-17.709,56.174-3.165c10.85-8.985,23.486-12.915,37.079-8.226c7.058,2.436,13.831,7.003,19.457,12.033
		c14.439,12.914,30.323,23.36,49.476,26.427c14.535,2.326,29.53,1.743,44.316,2.544c4.752,0.258,9.489,0.806,14.232,1.222
		C342.414,52.789,342.414,54.252,342.414,55.715z"/>
</g>
</svg>
