<?xml version="1.0" encoding="utf-8"?>
<!-- Generator: Adobe Illustrator 16.0.0, SVG Export Plug-In . SVG Version: 6.00 Build 0)  -->
<!DOCTYPE svg PUBLIC "-//W3C//DTD SVG 1.1//EN" "http://www.w3.org/Graphics/SVG/1.1/DTD/svg11.dtd">
<svg version="1.1" id="Layer_1" xmlns="http://www.w3.org/2000/svg" xmlns:xlink="http://www.w3.org/1999/xlink" x="0px" y="0px"
	 width="256px" height="196px" viewBox="46.5 -63.5 256 196" enable-background="new 46.5 -63.5 256 196" xml:space="preserve">
<path fill-rule="evenodd" clip-rule="evenodd" fill="#ED6D5B" d="M252.658,32.219c5.801,21.432,11.773,43.018,17.463,64.682
	c4.836,18.418,2.893,21.092-15.469,21.127c-52.617,0.096-105.237,0.1-157.857-0.004c-19.271-0.041-20.623-1.949-15.76-20.641
	c5.769-22.152,11.638-44.277,17.126-65.129c-11.687-6.317-22.392-11.14-32.019-17.582C56.277,8.071,56.079,0.408,65.265-8.469
	c51.712-49.96,167.351-50.217,219.933-0.506c9.973,9.425,9.525,17.379-1.135,24.376C274.855,21.444,264.611,25.909,252.658,32.219z
	 M206.125,63.367c0.527-16.35-13.016-30.41-29.705-30.833c-17.008-0.437-30.755,12.364-31.266,29.108
	c-0.51,16.725,12.572,30.346,29.549,30.766C191.602,92.832,205.592,79.9,206.125,63.367z M135.982,5.893c27.451,0,53.672,0,79.117,0
	c6.41-17.102-1.248-22.77-16.109-22.788c-15.822-0.017-31.641-0.042-47.459,0.042C136.295-16.773,129.764-10.366,135.982,5.893z"/>
</svg>
